
<svg xmlns="http://www.w3.org/2000/svg" data-name="Layer 1" viewBox="0 0 512 512"><path fill="#3c3b41" d="M381.52 462.32H147.7a11 11 0 0 0-10.33 7.14l-13.2 35h280.88l-13.2-35a11 11 0 0 0-10.33-7.14Z"/><path fill="#2a2a2c" d="M391.85 469.46a11 11 0 0 0-10.33-7.14H365a11 11 0 0 1 10.33 7.14l13.2 35h16.56Z"/><path fill="#8b8992" d="M346.53 420.19H182.68a28.08 28.08 0 0 0-28.08 28.08v14.1h220v-14.1a28.08 28.08 0 0 0-28.07-28.08Z"/><path fill="#78777f" d="M346.53 420.19H330a28.08 28.08 0 0 1 28.09 28.08v14.1h16.56v-14.1a28.08 28.08 0 0 0-28.12-28.08Z"/><path fill="#c8c6cb" d="m280.49 242.94 8.79 31.06a140.38 140.38 0 0 0 42.55 68l41.61 36.65v-.18l.7 24.71a16.56 16.56 0 0 1-16.55 17H165.44a16.57 16.57 0 0 1-15.18-9.94l-10.41-23.87a234.08 234.08 0 0 1 26-274.93 137.22 137.22 0 0 1 31.65-26.16L265.81 44v43.65l129.37 114.58a5.51 5.51 0 0 1 1 7.13l-15.71 24.28a5.53 5.53 0 0 1-6.95 2l-37.9-17.46v.05a95.82 95.82 0 0 1-126.4 0Z"/><path fill="#aeadb3" d="M373.44 378.62 331.83 342a140.38 140.38 0 0 1-42.55-68l-8.79-31.07-3-1.05a95.6 95.6 0 0 0 52.13-18.83L319 218.19v.05a95.56 95.56 0 0 1-58.12 23.65l3 1.05 8.84 31.06a140.38 140.38 0 0 0 42.55 68l41.61 36.64v-.17l.7 24.71a16.56 16.56 0 0 1-16.55 17h16.56a16.56 16.56 0 0 0 16.55-17l-.7-24.71zm21.74-176.39L265.81 87.65V44l-16.56 10v33.65l129.37 114.58a5.51 5.51 0 0 1 1 7.13l-14.51 22.42 8.41 3.87a5.53 5.53 0 0 0 6.95-2l15.71-24.28a5.51 5.51 0 0 0-1-7.14z"/><circle cx="269.25" cy="150.31" r="16.56" fill="#3c3b41"/><path fill="#2a2a2c" d="M269.25 133.75A16.49 16.49 0 0 0 261 136a16.53 16.53 0 0 1 0 28.65 16.39 16.39 0 0 0 8.28 2.24 16.56 16.56 0 0 0 0-33.12Z"/><path fill="#3c3b41" d="M126.85 361.17h33.56a8.28 8.28 0 0 0 0-16.56h-37.07a7.86 7.86 0 0 0-2.87.53zm-14.02-42.24a7.45 7.45 0 0 0 1.35.12h60.28a8.28 8.28 0 0 0 0-16.56h-60.28a8.2 8.2 0 0 0-4.31 1.21zm-5.66-42.21a8.19 8.19 0 0 0 1.73.19h79.6a8.28 8.28 0 0 0 0-16.56h-79.6a8.1 8.1 0 0 0-1.86.22z"/><path fill="#2a2a2c" d="M160.41 344.61h-16.56a8.28 8.28 0 0 1 0 16.56h16.56a8.28 8.28 0 0 0 0-16.56zm14.05-42.12H157.9a8.28 8.28 0 0 1 0 16.56h16.56a8.28 8.28 0 0 0 0-16.56zm14.04-42.14h-16.56a8.28 8.28 0 0 1 0 16.56h16.56a8.28 8.28 0 0 0 0-16.56z"/><path fill="#070606" d="m412.07 501.85-15.9-42.18a7.49 7.49 0 0 0-7-4.85h-7v-6.55a35.42 35.42 0 0 0-6.62-20.64 7.48 7.48 0 0 0 6.62-7.65l-1.18-41.74a7.48 7.48 0 0 0-3.67-6.24l-40.48-35.64A132.77 132.77 0 0 1 296.5 272l-6.5-22.93A105 105 0 0 0 336.81 227l37.9 17.46a7.51 7.51 0 0 0 9.44-2.74L405 209.45a7.5 7.5 0 0 0-1.32-9.69L273.32 84.27V44a7.5 7.5 0 0 0-11.39-6.41l-68.28 41.29a144.14 144.14 0 0 0-33.37 27.6A241.73 241.73 0 0 0 116.4 355.7l.08.18a244.12 244.12 0 0 0 16.7 33.93l14.56 33.38a7.46 7.46 0 0 0 6 4.43 35.39 35.39 0 0 0-6.63 20.65v6.55h-7a7.5 7.5 0 0 0-7 4.85l-15.89 42.18a7.5 7.5 0 0 0 7 10.15h280.83a7.5 7.5 0 0 0 7-10.15ZM146.74 383.39a6.58 6.58 0 0 0-.42-.84 229.46 229.46 0 0 1-11.6-22.16h25.71a7.5 7.5 0 0 0 0-15H128.5a227.78 227.78 0 0 1-8.21-27.13h54.18a7.5 7.5 0 1 0 0-15h-57.18a225.38 225.38 0 0 1-2.82-27.13h74a7.5 7.5 0 0 0 0-15h-74.13a225.84 225.84 0 0 1 57.15-144.7 129.77 129.77 0 0 1 29.93-24.72l56.9-34.43v30.37a7.49 7.49 0 0 0 2.53 5.61l128.09 113.45-13.86 21.41-36.34-16.74a7.56 7.56 0 0 0-5.83-.17 7.47 7.47 0 0 0-2.48 1.57c-15.19 13.26-32.26 20.82-49.61 22.67a7.25 7.25 0 0 0-2 .19c-22.39 1.81-45.11-5.87-64.67-23a7.5 7.5 0 1 0-9.9 11.28c21.09 18.51 46 27.44 70.65 26.79l7.16 25.29a147.5 147.5 0 0 0 44.82 71.6l39.17 34.49.86 30.59H159.52Zm220.38 64.88v6.55h-205v-6.55a20.61 20.61 0 0 1 20.59-20.58h163.83a20.6 20.6 0 0 1 20.58 20.58ZM135 497l10.24-27.18h8.49a7.92 7.92 0 0 0 .85.05h220a8.11 8.11 0 0 0 .86-.05H384L394.21 497Zm134.26-322.63a24.06 24.06 0 1 0-24.06-24.06 24.08 24.08 0 0 0 24.06 24.06Zm0-33.12a9.06 9.06 0 1 1-9.06 9.06 9.07 9.07 0 0 1 9.06-9.06Z"/></svg>