
<svg xmlns="http://www.w3.org/2000/svg" data-name="Layer 1" viewBox="0 0 512 512"><path fill="#8b8992" d="M277.52 185.39a62.5 62.5 0 1 0-43 0Z"/><path fill="#78777f" d="M256 64.19a64 64 0 0 0-7.5.46 62.51 62.51 0 0 1 14 120.74h15A62.51 62.51 0 0 0 256 64.19Z"/><path fill="#3c3b41" d="M165.2 474.44h181.6a15.7 15.7 0 0 1 15.7 15.7v14.36h-213v-14.36a15.7 15.7 0 0 1 15.7-15.7Z"/><path fill="#2a2a2c" d="M346.8 474.44h-7.14a16.07 16.07 0 0 1 12.75 15.72v14.34h10.09v-14.36a15.7 15.7 0 0 0-15.7-15.7Z"/><path fill="#8b8992" d="M322.3 398.58H189.7a15 15 0 0 0-13.95 9.49L157.61 454a15 15 0 0 0 13.95 20.51h168.88A15 15 0 0 0 354.39 454l-18.14-45.92a15 15 0 0 0-13.95-9.5Z"/><path fill="#78777f" d="m354.39 454-18.14-45.92a15 15 0 0 0-13.95-9.49h-15a15 15 0 0 1 13.95 9.49L339.39 454a15 15 0 0 1-13.95 20.51h15A15 15 0 0 0 354.39 454Z"/><path fill="#c8c6cb" d="M311.99 398.56H200.01l15-183.06h81.98l15 183.06z"/><path fill="#c8c6cb" d="M311.99 398.56H200.01l15-183.06h81.98l15 183.06z"/><path fill="#aeadb3" d="M296.99 215.5h-15l15 183.06h15l-15-183.06z"/><rect width="130" height="30" x="191" y="185.39" fill="#3c3b41" rx="10.9"/><path fill="#2a2a2c" d="M310.1 185.39h-15a10.9 10.9 0 0 1 10.9 10.9v8.21a10.89 10.89 0 0 1-10.9 10.89h15A10.89 10.89 0 0 0 321 204.5v-8.21a10.9 10.9 0 0 0-10.9-10.9Z"/><path fill="#070606" d="M359.81 471a22.48 22.48 0 0 0 1.56-19.72l-18.15-45.92a22.36 22.36 0 0 0-20.92-14.23h-3.4l-13.78-168.24h5a18.41 18.41 0 0 0 18.4-18.39v-8.21a18.42 18.42 0 0 0-18.4-18.4h-6.42a70 70 0 1 0-95.36 0h-6.44a18.42 18.42 0 0 0-18.4 18.4v8.21a18.41 18.41 0 0 0 18.4 18.39h5l-13.8 168.19h-3.4a22.36 22.36 0 0 0-20.92 14.23l-18.15 45.92a22.48 22.48 0 0 0 1.56 19.77A23.16 23.16 0 0 0 142 490.14v14.36a7.5 7.5 0 0 0 7.5 7.5h213a7.5 7.5 0 0 0 7.5-7.5v-14.36A23.16 23.16 0 0 0 359.81 471ZM201 126.69a55 55 0 1 1 75.11 51.2h-40.22a55.2 55.2 0 0 1-34.89-51.2Zm.9 81.2a3.4 3.4 0 0 1-3.4-3.39v-8.21a3.4 3.4 0 0 1 3.4-3.4h108.2a3.4 3.4 0 0 1 3.4 3.4v8.21a3.4 3.4 0 0 1-3.4 3.39Zm102 183.17h-95.7L221.92 223h68.16Zm-139.32 65.68 18.15-45.92a7.44 7.44 0 0 1 7-4.74H322.3a7.44 7.44 0 0 1 7 4.74l18.15 45.92a7.49 7.49 0 0 1-6 10.2H170.62a7.49 7.49 0 0 1-6-10.2ZM355 497H157v-6.86a8.21 8.21 0 0 1 8.2-8.2h4.8c.51 0 1 .06 1.54.06h168.9c.52 0 1 0 1.54-.06h4.82a8.21 8.21 0 0 1 8.2 8.2Z"/></svg>