
<svg xmlns="http://www.w3.org/2000/svg" data-name="Layer 1" viewBox="0 0 512 512">
<path fill="#3c3b41" d="M165.2 474.06h181.6a15.7 15.7 0 0 1 15.7 15.7v14.36h-213v-14.36a15.7 15.7 0 0 1 15.7-15.7Z"/>
<path fill="#8b8992" d="M322.3 398.2H189.7a15 15 0 0 0-13.95 9.48l-18.14 45.93a15 15 0 0 0 13.95 20.51h168.88a15 15 0 0 0 13.95-20.51l-18.14-45.93a15 15 0 0 0-13.95-9.48Z"/>
<path fill="#c8c6cb" d="M311.99 398.25H200.01l15-183.05h81.98l15 183.05z"/>
<rect width="130" height="30" x="191" y="185.18" fill="#3c3b41" rx="10.9"/>
<path fill="#8b8992" d="M308.5 85.17v47.66h-31.44V85.17h-42.12v47.66H203.5V85.17h-30v90a10 10 0 0 0 10 10h145a10 10 0 0 0 10-10v-90Z"/>
<path fill="#070606" d="M359.81 471a22.48 22.48 0 0 0 1.56-19.72l-18.15-45.92a22.36 22.36 0 0 0-20.92-14.23h-3.41l-13.76-168h5a18.41 18.41 0 0 0 18.4-18.39v-8.21a17.9 17.9 0 0 0-.5-4.17h.5a17.52 17.52 0 0 0 17.5-17.5v-90a7.5 7.5 0 0 0-7.5-7.5h-30a7.5 7.5 0 0 0-7.5 7.5V125h-16.47V84.79a7.49 7.49 0 0 0-7.5-7.5h-42.12a7.49 7.49 0 0 0-7.5 7.5V125H211V84.79a7.5 7.5 0 0 0-7.5-7.5h-30a7.5 7.5 0 0 0-7.5 7.5v90a17.52 17.52 0 0 0 17.5 17.5h.5a17.9 17.9 0 0 0-.5 4.17v8.21a18.41 18.41 0 0 0 18.4 18.39h5l-13.76 168h-3.44a22.36 22.36 0 0 0-20.92 14.23l-18.15 45.92a22.48 22.48 0 0 0 1.56 19.79A23.16 23.16 0 0 0 142 490.14v14.36a7.5 7.5 0 0 0 7.5 7.5h213a7.5 7.5 0 0 0 7.5-7.5v-14.36A23.16 23.16 0 0 0 359.81 471ZM183.5 177.29a2.51 2.51 0 0 1-2.5-2.5v-82.5h15v40.16a7.5 7.5 0 0 0 7.5 7.5h31.44a7.5 7.5 0 0 0 7.5-7.5V92.29h27.12v40.16a7.5 7.5 0 0 0 7.5 7.5h31.44a7.5 7.5 0 0 0 7.5-7.5V92.29h15v82.5a2.51 2.51 0 0 1-2.5 2.5Zm18.4 30.77a3.4 3.4 0 0 1-3.4-3.39v-8.21a3.4 3.4 0 0 1 3.4-3.4h108.2a3.4 3.4 0 0 1 3.4 3.4v8.21a3.4 3.4 0 0 1-3.4 3.39Zm101.94 183h-95.68l13.76-168h68.16Zm-139.26 65.68 18.15-45.92a7.45 7.45 0 0 1 7-4.74h9.44a8.46 8.46 0 0 0 .87.05H312a8.46 8.46 0 0 0 .87-.05h9.44a7.45 7.45 0 0 1 7 4.74l18.15 45.92a7.49 7.49 0 0 1-6 10.2H170.62a7.49 7.49 0 0 1-6-10.2ZM355 497H157v-6.86a8.21 8.21 0 0 1 8.2-8.2h4.8c.51 0 1 .06 1.54.06h168.9c.52 0 1 0 1.54-.06h4.82a8.21 8.21 0 0 1 8.2 8.2Z"/>
</svg>